<svg xmlns="http://www.w3.org/2000/svg" width="999" height="999" viewBox="0 0 999 999">
  <g id="icon-messages-app-store-999-999" transform="translate(2116 7123)">
    <rect id="Rectangle_1944" data-name="Rectangle 1944" width="999" height="999" transform="translate(-2116 -7123)" fill="#40cdde"/>
    <g id="Group_1645" data-name="Group 1645" transform="translate(-1932.021 -7033.927)">
      <circle id="Ellipse_33" data-name="Ellipse 33" cx="53.104" cy="53.104" r="53.104" transform="translate(270.882 290.704)" fill="#fff"/>
      <circle id="Ellipse_34" data-name="Ellipse 34" cx="29.307" cy="29.307" r="29.307" transform="translate(218.654 190.251)" fill="#fff"/>
      <path id="Path_142" data-name="Path 142" d="M833.757,419,668.35,364.061a194.428,194.428,0,0,1-61.392,12.456c-107.4,4.134-197.823-79.53-201.966-186.881S484.563-8.091,591.966-12.231,789.788,67.3,793.931,174.65a193.471,193.471,0,0,1-28,108.223L938.7,453.863,867.946,326.629c15.974-52.605,25.2-104.612,23.344-152.6-6.212-161.019-141.845-286.522-302.95-280.312S301.675,35.484,307.885,196.509c9.452,245.146,312.108,517.832,312.108,517.832S776.2,531.393,833.757,419Z" transform="translate(-307.664 106.505)" fill="#fff"/>
    </g>
  </g>
</svg>
