<svg xmlns="http://www.w3.org/2000/svg" xmlns:xlink="http://www.w3.org/1999/xlink" width="54" height="40" viewBox="0 0 54 40">
  <defs>
    <clipPath id="clip-path">
      <rect id="Rectangle_1951" data-name="Rectangle 1951" width="54" height="40" transform="translate(-6965 -7342)" fill="#fff"/>
    </clipPath>
  </defs>
  <g id="icon-messages-app-54-40" transform="translate(6965 7342)" clip-path="url(#clip-path)">
    <g id="labul-store-72-72" transform="translate(-6965 -7348)">
      <rect id="Rectangle_1950" data-name="Rectangle 1950" width="54" height="54" fill="#40cdde"/>
      <g id="Group_1645" data-name="Group 1645" transform="translate(9.945 4.814)">
        <circle id="Ellipse_33" data-name="Ellipse 33" cx="2.87" cy="2.87" r="2.87" transform="translate(14.642 15.714)" fill="#fff"/>
        <circle id="Ellipse_34" data-name="Ellipse 34" cx="1.584" cy="1.584" r="1.584" transform="translate(11.819 10.284)" fill="#fff"/>
        <path id="Path_142" data-name="Path 142" d="M336.1-78.1l-8.941-2.97a10.51,10.51,0,0,1-3.318.673,10.518,10.518,0,0,1-10.917-10.1,10.517,10.517,0,0,1,10.107-10.912,10.518,10.518,0,0,1,10.917,10.1,10.458,10.458,0,0,1-1.514,5.85l9.339,9.243-3.824-6.878a25.515,25.515,0,0,0,1.262-8.249,15.776,15.776,0,0,0-16.376-15.152,15.775,15.775,0,0,0-15.16,16.367c.511,13.251,16.871,27.991,16.871,27.991S332.99-72.024,336.1-78.1Z" transform="translate(-307.664 106.505)" fill="#fff"/>
      </g>
    </g>
  </g>
</svg>
