<svg xmlns="http://www.w3.org/2000/svg" width="186.224" height="173.514" viewBox="0 0 186.224 173.514">
  <g id="Group_1618" data-name="Group 1618" transform="translate(-466.646 -2781.032)">
    <g id="Group_41" data-name="Group 41" transform="translate(466.646 2900.951)">
      <path id="Path_137" data-name="Path 137" d="M488.83,3653.831h-3.88c-11.788,0-18.3-6.59-18.3-18.6V3603.24h4.1c4.1,0,6.223,2.343,6.223,7.321v24.015c0,7.614,1.757,10.4,9.3,10.4h2.563a29.8,29.8,0,0,0,10.47-1.831v3.441C499.3,3650.976,497.1,3653.831,488.83,3653.831Z" transform="translate(-466.646 -3600.677)" fill="#fff"/>
      <path id="Path_138" data-name="Path 138" d="M742.56,3714.993h-1.977c-9.372,0-15.814-5.271-15.814-12.52,0-7.029,5.125-12.373,19.622-12.373h3.441v-.512c0-5.564-2.636-7.248-8.493-7.248-7.1,0-11.056,2.709-12.52,4.539h-.366v-3.148c0-4.393,3.954-9.664,14.35-9.664,8.786,0,16.693,4.1,16.693,17.718v9.078C757.5,3709.21,751.346,3714.993,742.56,3714.993Zm5.345-17.865h-3.515c-7.468,0-9.591,1.757-9.591,4.979,0,3.075,2.489,4.905,6.809,4.905,4.246,0,6.3-2.05,6.3-6.077Z" transform="translate(-688.789 -3661.62)" fill="#fff"/>
      <path id="Path_139" data-name="Path 139" d="M1034.536,3638.47c-10.1,0-18.6-8.273-18.6-20.134v-33.46h3.368c3.807,0,6.443,2.2,6.443,6.809v11.5c1.977-2.855,5.345-6,10.689-6,10.031,0,17.718,8.2,17.718,19.842C1054.158,3628.879,1046.543,3638.47,1034.536,3638.47Zm0-32.581c-4.979,0-8.713,4.905-8.713,11.055,0,9.079,3.88,12.813,9.738,12.813,4.905,0,8.42-4.686,8.42-11.056C1043.98,3609.111,1040.539,3605.889,1034.536,3605.889Z" transform="translate(-939.376 -3584.876)" fill="#fff"/>
      <path id="Path_140" data-name="Path 140" d="M1363.361,3719.727c-9.738,0-17.425-6.443-17.425-17.938v-22.477h1.83c5.638,0,8.127,2.416,8.127,7.029v14.5c0,7.249,3.514,10.177,7.981,10.177,4.027,0,6.882-2.782,6.882-9.518v-22.184h1.757c5.711,0,8.127,2.416,8.127,7.029v14.79C1380.64,3713.431,1374.856,3719.727,1363.361,3719.727Z" transform="translate(-1223.374 -3666.133)" fill="#fff"/>
      <path id="Path_141" data-name="Path 141" d="M1677.956,3637.958c-8.127,0-12.52-4.32-12.52-12.3v-40.781h2.782c4.905,0,7.029,2.856,7.029,6.589v33.24c0,3.953,2.05,5.2,6.663,5.2h2.636v2.124C1684.545,3636.273,1682.276,3637.958,1677.956,3637.958Z" transform="translate(-1498.321 -3584.876)" fill="#fff"/>
    </g>
    <g id="Group_42" data-name="Group 42" transform="matrix(0.966, 0.259, -0.259, 0.966, 528.444, 2781.032)">
      <circle id="Ellipse_33" data-name="Ellipse 33" cx="6.605" cy="6.605" r="6.605" transform="translate(35.454 34.772)" fill="#fff"/>
      <circle id="Ellipse_34" data-name="Ellipse 34" cx="3.644" cy="3.644" r="3.644" transform="matrix(0.989, -0.15, 0.15, 0.989, 24.333, 26.287)" fill="#fff"/>
      <path id="Path_142" data-name="Path 142" d="M880.816,2846.208l-21.691-.524a24.232,24.232,0,1,1,8.66-13.221l26.793,14.077-13.056-12.579a58.815,58.815,0,0,0-2.778-19.024,36.338,36.338,0,0,0-68.631,23.91c10.052,28.853,56.009,50.315,56.009,50.315S878.056,2861.689,880.816,2846.208Z" transform="translate(-808.081 -2790.545)" fill="#fff"/>
    </g>
  </g>
</svg>
