<svg xmlns="http://www.w3.org/2000/svg" width="19" height="21" viewBox="0 0 19 21">
  <g id="Group_1655" data-name="Group 1655" transform="translate(-45 -397)">
    <g id="Calendar" transform="translate(45 397)">
      <path id="Shape" d="M13.578,14.159H5.412a5.284,5.284,0,0,1-3.946-1.533A5.892,5.892,0,0,1,0,8.459V0H19V8.527C19,12,16.922,14.159,13.578,14.159Zm.188-6.233a.906.906,0,0,0-.856.944.878.878,0,1,0,.866-.944ZM9.479,7.915a.93.93,0,0,0-.855.956.89.89,0,0,0,.857.889h.04a.834.834,0,0,0,.6-.293.943.943,0,0,0,.228-.661A.882.882,0,0,0,9.479,7.915Zm-4.3,0a.93.93,0,0,0-.855.956.89.89,0,0,0,.857.889h.04a.834.834,0,0,0,.6-.293A.943.943,0,0,0,6.048,8.8.882.882,0,0,0,5.183,7.915Zm4.3-4.034a.93.93,0,0,0-.855.957.89.89,0,0,0,.857.889h.04a.9.9,0,0,0,.823-.956A.881.881,0,0,0,9.479,3.881Zm-4.286,0a.93.93,0,0,0-.855.957.89.89,0,0,0,.857.889h.04a.837.837,0,0,0,.6-.294.943.943,0,0,0,.228-.662A.881.881,0,0,0,5.193,3.881Zm8.583.013a.9.9,0,0,0-.855.933v.011a.881.881,0,0,0,.866.889h.02a.816.816,0,0,0,.588-.274.958.958,0,0,0,.246-.669A.9.9,0,0,0,13.776,3.893Z" transform="translate(0 6.841)" fill="#fdc641"/>
      <path id="Path" d="M0,6.408A18.528,18.528,0,0,1,.164,4.044,4.922,4.922,0,0,1,4.794,0H14.2a4.974,4.974,0,0,1,4.63,4.044,18.558,18.558,0,0,1,.163,2.363Z" transform="translate(0.004 1.655)" fill="#fdc641" opacity="0.4"/>
      <path id="Path-2" data-name="Path" d="M.845,5.1a.83.83,0,0,0,.845-.856V.857A.831.831,0,0,0,.845,0,.831.831,0,0,0,0,.857V4.244A.83.83,0,0,0,.845,5.1Z" transform="translate(4.773)" fill="#fdc641"/>
      <path id="Path-3" data-name="Path" d="M.845,5.1a.836.836,0,0,0,.845-.856V.857A.837.837,0,0,0,.845,0,.831.831,0,0,0,0,.857V4.244A.83.83,0,0,0,.845,5.1Z" transform="translate(12.536)" fill="#fdc641"/>
    </g>
  </g>
</svg>
