<svg xmlns="http://www.w3.org/2000/svg" width="1536" height="1536" viewBox="0 0 1536 1536">
  <g id="ItunesArtwork-1024x1024" transform="translate(2116 7123)">
    <rect id="Rectangle_1944" data-name="Rectangle 1944" width="1536" height="1536" transform="translate(-2116 -7123)" fill="#40cdde"/>
    <g id="Group_1645" data-name="Group 1645" transform="translate(-1833.125 -6986.047)">
      <circle id="Ellipse_33" data-name="Ellipse 33" cx="81.649" cy="81.649" r="81.649" transform="translate(416.492 446.968)" fill="#fff"/>
      <circle id="Ellipse_34" data-name="Ellipse 34" cx="45.061" cy="45.061" r="45.061" transform="translate(336.189 292.518)" fill="#fff"/>
      <path id="Path_142" data-name="Path 142" d="M1116.552,701.485l-254.32-84.478a298.939,298.939,0,0,1-94.392,19.151c-165.133,6.357-304.16-122.281-310.53-287.336S579.654,44.81,744.789,38.445s304.159,122.281,310.529,287.336a297.469,297.469,0,0,1-43.055,166.4l265.641,262.9L1169.119,559.454c24.561-80.882,38.741-160.845,35.893-234.629-9.551-247.572-218.093-440.539-465.8-430.99S298.456,111.809,308,359.39c14.533,376.922,479.877,796.186,479.877,796.186S1028.052,874.287,1116.552,701.485Z" transform="translate(-307.664 106.505)" fill="#fff"/>
    </g>
  </g>
</svg>
