<svg xmlns="http://www.w3.org/2000/svg" width="512" height="512" viewBox="0 0 512 512">
  <g id="ItunesArtwork-1024x1024" transform="translate(2116 7122.802)">
    <rect id="Rectangle_1944" data-name="Rectangle 1944" width="512" height="512" transform="translate(-2116 -7122.802)" fill="#40cdde"/>
    <g id="Group_1645" data-name="Group 1645" transform="translate(-2021.671 -7077.336)">
      <circle id="Ellipse_33" data-name="Ellipse 33" cx="27.227" cy="27.227" r="27.227" transform="translate(138.886 149.049)" fill="#fff"/>
      <circle id="Ellipse_34" data-name="Ellipse 34" cx="15.026" cy="15.026" r="15.026" transform="translate(112.108 97.545)" fill="#fff"/>
      <path id="Path_142" data-name="Path 142" d="M577.4,162.932l-84.807-28.17a99.761,99.761,0,1,1,50.03-41.626l88.582,87.67L594.93,115.57C603.12,88.6,607.848,61.934,606.9,37.329A149.672,149.672,0,0,0,307.777,48.855c4.846,125.691,160.023,265.5,160.023,265.5S547.889,220.556,577.4,162.932Z" transform="translate(-307.664 106.505)" fill="#fff"/>
    </g>
  </g>
</svg>
