<svg id="alimentation" xmlns="http://www.w3.org/2000/svg" width="38" height="38" viewBox="0 0 38 38">
  <rect id="Rectangle_8" data-name="Rectangle 8" width="38" height="38" rx="19" fill="#40cdde" opacity="0.2"/>
  <path id="icons8-commercial" d="M16.769,5a1.115,1.115,0,0,0-1.154,1.071v.082l-6.923,1.7V15l6.923,1.7v.082a1.157,1.157,0,0,0,2.308,0V6.071A1.115,1.115,0,0,0,16.769,5ZM7.154,8l-4.769.444A1.473,1.473,0,0,0,1,9.865v3.128a1.473,1.473,0,0,0,1.385,1.422l1.869.174.885,4.817A.753.753,0,0,0,5.9,20h.488a.744.744,0,0,0,.769-.714l0-4.428h0ZM19.462,9.643v3.571l.373-.086A1.454,1.454,0,0,0,21,11.742v-.626a1.455,1.455,0,0,0-1.166-1.387Z" transform="translate(4.582 10.358) rotate(-17)" fill="#40cdde"/>
</svg>
