<svg id="alimentation" xmlns="http://www.w3.org/2000/svg" width="38" height="38" viewBox="0 0 38 38">
  <rect id="Rectangle_8" data-name="Rectangle 8" width="38" height="38" rx="19" fill="#ef88b9" opacity="0.2"/>
  <g id="Iconly_Bold_Calendar" data-name="Iconly/Bold/Calendar" transform="translate(7 7)">
    <g id="Calendar" transform="translate(3 2)">
      <path id="Calendar-2" data-name="Calendar" d="M5.152,20H5.145A5.158,5.158,0,0,1,1.4,18.619,5.141,5.141,0,0,1,.011,14.879L0,6.553A4.705,4.705,0,0,1,4.506,1.53V.781A.774.774,0,0,1,4.718.234.766.766,0,0,1,6.025.778v.7l5.865-.008v-.7a.772.772,0,0,1,.216-.55.766.766,0,0,1,1.3.547v.75a4.961,4.961,0,0,1,3.32,1.486,4.994,4.994,0,0,1,1.257,3.484L18,14.915a5.058,5.058,0,0,1-1.377,3.713,5.206,5.206,0,0,1-3.75,1.362Zm7.891-5.808a.834.834,0,0,0-.809.852.83.83,0,1,0,.819-.852Zm-8.126,0v0a.849.849,0,0,0-.809.86.825.825,0,0,0,.813.8h.037a.824.824,0,0,0,.779-.861.811.811,0,0,0-.818-.8Zm4.068-.006v0a.853.853,0,0,0-.807.861.824.824,0,0,0,.813.8h.036a.811.811,0,0,0,.573-.275.82.82,0,0,0,.206-.586.811.811,0,0,0-.818-.8ZM4.913,10.593v0a.849.849,0,0,0-.809.86.822.822,0,0,0,.811.8h.039a.8.8,0,0,0,.568-.271.826.826,0,0,0,.209-.59.811.811,0,0,0-.817-.8Zm4.069-.035v0a.852.852,0,0,0-.81.86.826.826,0,0,0,.815.8h.035a.824.824,0,0,0,.779-.861.812.812,0,0,0-.817-.8Zm4.066,0v0a.827.827,0,0,0-.807.839v.012a.813.813,0,0,0,.821.8h.019a.825.825,0,0,0-.03-1.649Zm-8.54-7.5h0c-1.985.2-2.99,1.373-2.988,3.492v.312L16.47,6.841v-.35c-.042-2.113-1.071-3.271-3.056-3.443v.77a.764.764,0,0,1-1.3.547.773.773,0,0,1-.217-.545V3.01l-5.866.007,0,.809a.765.765,0,0,1-1.3.548.775.775,0,0,1-.217-.547V3.058Z" transform="translate(0 0)" fill="#ef88b9"/>
    </g>
  </g>
</svg>
