<svg id="alimentation" xmlns="http://www.w3.org/2000/svg" width="38" height="38" viewBox="0 0 38 38">
  <rect id="Rectangle_8" data-name="Rectangle 8" width="38" height="38" rx="19" fill="#aa87e5" opacity="0.2"/>
  <g id="Iconly_Bold_Discount" data-name="Iconly/Bold/Discount" transform="translate(7 6.999)">
    <g id="Discount" transform="translate(2 2.001)">
      <path id="Discount-2" data-name="Discount" d="M10.006,20a3.023,3.023,0,0,1-2.131-.869l-.73-.732a1.489,1.489,0,0,0-1.06-.438H5.055a3.015,3.015,0,0,1-3.011-3.012V13.92a1.539,1.539,0,0,0-.44-1.071l-.72-.71a3.022,3.022,0,0,1-.01-4.26l.73-.732a1.5,1.5,0,0,0,.44-1.07V5.056A3.014,3.014,0,0,1,5.055,2.047h1.03a1.511,1.511,0,0,0,1.06-.441l.72-.72A3.017,3.017,0,0,1,12.127.877l.731.729a1.49,1.49,0,0,0,1.06.441h1.03a3.013,3.013,0,0,1,3.01,3.009V6.088A1.486,1.486,0,0,0,18.4,7.147l.72.72a3.032,3.032,0,0,1,.02,4.252l-.02.02-.01.01-.71.71a1.489,1.489,0,0,0-.441,1.061v1.029a3.015,3.015,0,0,1-3.01,3.012h-1.03a1.489,1.489,0,0,0-1.06.438l-.721.72A2.986,2.986,0,0,1,10.006,20Zm2.571-8.3a.875.875,0,1,0,.87.871A.877.877,0,0,0,12.578,11.7Zm-.005-5.145a.866.866,0,0,0-.616.255L6.815,11.948a.88.88,0,0,0,0,1.24.828.828,0,0,0,.61.26.837.837,0,0,0,.62-.26l5.143-5.14a.875.875,0,0,0-.616-1.5Zm-5.137,0a.875.875,0,1,0,.87.87A.876.876,0,0,0,7.435,6.557Z" transform="translate(0 0)" fill="#aa87e5"/>
    </g>
  </g>
</svg>
