<svg xmlns="http://www.w3.org/2000/svg" width="133.585" height="114.946" viewBox="0 0 133.585 114.946">
  <g id="Group_14" data-name="Group 14" transform="translate(-90.708 7.403)">
    <g id="alert" transform="translate(90.708 -7.403)" opacity="0.997">
      <g id="Group_46" data-name="Group 46" transform="translate(17.207 24.849)">
        <g id="Fill_5" data-name="Fill 5">
          <path id="Tracé_2456" data-name="Tracé 2456" d="M2567.658,405.808h-.2a14.508,14.508,0,0,1-4.65-1,13.96,13.96,0,0,1-7.931-18.2l.04-.09L2592,322.9a14.078,14.078,0,0,1,5.573-5.436,14.515,14.515,0,0,1,19.479,5.481l36.838,63.121a14.121,14.121,0,0,1,1.256,5.005,13.788,13.788,0,0,1-3.672,10.125,14.333,14.333,0,0,1-9.907,4.61Z" transform="translate(-2553.869 -315.712)" fill="#fff"/>
        </g>
        <g id="Combined_Shape" data-name="Combined Shape" transform="translate(46.267 30.434)">
          <path id="Tracé_2457" data-name="Tracé 2457" d="M2562.993,357.164a4.377,4.377,0,1,1,4.415,4.339h-.035A4.377,4.377,0,0,1,2562.993,357.164Zm0-16.968V326.172a4.379,4.379,0,1,1,8.759,0v14.015a4.379,4.379,0,1,1-8.759,0Z" transform="translate(-2562.993 -321.792)" fill="#fc3867"/>
        </g>
      </g>
      <g id="Group_49" data-name="Group 49">
        <g id="Group_47" data-name="Group 47">
          <g id="Stroke_3" data-name="Stroke 3" transform="translate(14.824 14.347)">
            <path id="Tracé_2458" data-name="Tracé 2458" d="M2557.194,350.27a3.761,3.761,0,0,1-3.744-3.529,34.477,34.477,0,0,1,18.524-32.074,3.754,3.754,0,1,1,3.352,6.717,26.974,26.974,0,0,0-14.378,24.911,3.75,3.75,0,0,1-3.524,3.969C2557.351,350.27,2557.274,350.27,2557.194,350.27Z" transform="translate(-2553.393 -314.27)" fill="#fff"/>
          </g>
          <g id="Stroke_5" data-name="Stroke 5">
            <path id="Tracé_2459" data-name="Tracé 2459" d="M2554.266,364.823a3.76,3.76,0,0,1-3.744-3.529,53.291,53.291,0,0,1,28.579-49.5,3.756,3.756,0,0,1,3.364,6.717,45.762,45.762,0,0,0-24.445,42.329,3.759,3.759,0,0,1-3.525,3.974C2554.42,364.823,2554.344,364.823,2554.266,364.823Z" transform="translate(-2550.432 -311.403)" fill="#fff"/>
          </g>
        </g>
        <g id="Group_48" data-name="Group 48" transform="translate(94.748 0.002)">
          <g id="Stroke_3-2" data-name="Stroke 3-2" transform="translate(0 14.347)">
            <path id="Tracé_2460" data-name="Tracé 2460" d="M2589.333,350.268c-.074,0-.15,0-.229-.005a3.755,3.755,0,0,1-3.525-3.969,26.963,26.963,0,0,0-14.379-24.911,3.754,3.754,0,1,1,3.354-6.717,34.476,34.476,0,0,1,18.523,32.074A3.752,3.752,0,0,1,2589.333,350.268Z" transform="translate(-2569.122 -314.27)" fill="#fff"/>
          </g>
          <g id="Stroke_5-2" data-name="Stroke 5-2" transform="translate(4.73)">
            <path id="Tracé_2461" data-name="Tracé 2461" d="M2600.34,364.822c-.074,0-.15,0-.23,0a3.761,3.761,0,0,1-3.524-3.974,45.756,45.756,0,0,0-24.44-42.329,3.754,3.754,0,1,1,3.354-6.717,53.283,53.283,0,0,1,28.584,49.5A3.753,3.753,0,0,1,2600.34,364.822Z" transform="translate(-2570.067 -311.404)" fill="#fff"/>
          </g>
        </g>
      </g>
    </g>
  </g>
</svg>
