<svg xmlns="http://www.w3.org/2000/svg" width="95" height="154" viewBox="0 0 95 154">
  <rect id="giorgio-trovato-p0OlRAAYXLY-unsplash" width="95" height="154" rx="18" fill="#fc3867"/>
  <g id="Groupe_2069" data-name="Groupe 2069" transform="translate(459.605 4246.388)">
    <g id="Groupe_2028" data-name="Groupe 2028" transform="translate(-449.918 -4204.918)">
      <g id="alert" transform="translate(16.313 16.818)" opacity="0.997">
        <g id="Group_46" data-name="Group 46" transform="translate(0 0)">
          <path id="Soustraction_6" data-name="Soustraction 6" d="M36.43,37.425H5.647a6,6,0,0,1-1.931-.416,5.821,5.821,0,0,1-3.243-3.13,5.721,5.721,0,0,1-.052-4.431l.017-.038L15.84,2.988A5.845,5.845,0,0,1,18.155.729a6.031,6.031,0,0,1,8.092,2.277l15.3,26.218a5.878,5.878,0,0,1,.521,2.079,5.762,5.762,0,0,1-1.525,4.207,6,6,0,0,1-4.116,1.915ZM21.021,25.5a1.819,1.819,0,0,0,.019,3.638h.015a1.816,1.816,0,0,0,1.8-1.834,1.825,1.825,0,0,0-1.821-1.8Zm.019-12.857a1.821,1.821,0,0,0-1.82,1.819v5.823a1.819,1.819,0,0,0,3.638,0V14.461A1.821,1.821,0,0,0,21.04,12.642Z" transform="translate(0)" fill="#fff" stroke="rgba(0,0,0,0)" stroke-miterlimit="10" stroke-width="1"/>
        </g>
      </g>
    </g>
  </g>
</svg>
