<svg xmlns="http://www.w3.org/2000/svg" width="50" height="50" viewBox="0 0 50 50">
  <g id="Groupe_1081" data-name="Groupe 1081" transform="translate(1276 -894)">
    <rect id="Rectangle_1796" data-name="Rectangle 1796" width="50" height="50" rx="25" transform="translate(-1226 944) rotate(180)" fill="#fff"/>
    <g id="Group_46" data-name="Group 46" transform="translate(-3816.891 591.449)">
      <g id="Fill_5" data-name="Fill 5" transform="translate(2553.869 315.712)">
        <path id="Tracé_2456" data-name="Tracé 2456" d="M2557.142,337.353h-.047a3.407,3.407,0,0,1-1.1-.24,3.366,3.366,0,0,1-1.883-4.373l.01-.022,8.8-15.28a3.36,3.36,0,0,1,1.323-1.306,3.424,3.424,0,0,1,4.624,1.316l8.744,15.162a3.415,3.415,0,0,1,.3,1.2,3.335,3.335,0,0,1-.872,2.432,3.385,3.385,0,0,1-2.351,1.107Z" transform="translate(-2553.869 -315.711)" fill="#fc3867"/>
      </g>
      <g id="Combined_Shape" data-name="Combined Shape" transform="translate(2565.016 323.991)">
        <path id="Tracé_2457" data-name="Tracé 2457" d="M2562.993,328.859a.875.875,0,1,1,.882.867h-.007A.874.874,0,0,1,2562.993,328.859Zm0-3.39v-2.8a.875.875,0,0,1,1.75,0v2.8a.875.875,0,0,1-1.75,0Z" transform="translate(-2562.993 -321.792)" fill="#fff"/>
      </g>
    </g>
  </g>
</svg>
