<svg xmlns="http://www.w3.org/2000/svg" width="144" height="144" viewBox="0 0 144 144">
  <g id="labul-store-144-144" transform="translate(2116 7123)">
    <rect id="Rectangle_1944" data-name="Rectangle 1944" width="144" height="144" transform="translate(-2116 -7123)" fill="#40cdde"/>
    <g id="Group_1645" data-name="Group 1645" transform="translate(-2089.48 -7110.161)">
      <circle id="Ellipse_33" data-name="Ellipse 33" cx="7.655" cy="7.655" r="7.655" transform="translate(39.046 41.903)" fill="#fff"/>
      <circle id="Ellipse_34" data-name="Ellipse 34" cx="4.224" cy="4.224" r="4.224" transform="translate(31.518 27.424)" fill="#fff"/>
      <path id="Path_142" data-name="Path 142" d="M383.5-30.756l-23.843-7.92a28.025,28.025,0,0,1-8.849,1.8,28.047,28.047,0,0,1-29.112-26.938,28.044,28.044,0,0,1,26.951-29.1,28.047,28.047,0,0,1,29.112,26.938,27.888,27.888,0,0,1-4.036,15.6l24.9,24.647-10.2-18.34c2.3-7.583,3.632-15.079,3.365-22a42.07,42.07,0,0,0-43.668-40.405A42.065,42.065,0,0,0,307.7-62.827c1.362,35.336,44.988,74.642,44.988,74.642S375.2-14.556,383.5-30.756Z" transform="translate(-307.664 106.505)" fill="#fff"/>
    </g>
  </g>
</svg>
