<svg xmlns="http://www.w3.org/2000/svg" width="143" height="67.493" viewBox="0 0 143 67.493">
  <g id="Groupe_1814" data-name="Groupe 1814" transform="translate(-116 -163.56)">
    <g id="Groupe_1082" data-name="Groupe 1082" transform="translate(116 194.773)">
      <path id="Tracé_57" data-name="Tracé 57" d="M596.091,1673.991c-2.506,0-4.242-1.44-4.242-4.519,0-4.32-.723-16.784-1.253-20.16-.434,1.092-1.061,2.483-1.542,4.022l-4.627,14.6a25.258,25.258,0,0,1-2.7,6.058h-1.784c-2.169,0-4.1-1.738-5.3-5.413l-4.724-14.351c-.578-1.738-1.35-3.774-1.832-4.965-.868,4.866-1.446,18.522-1.446,24.729h-2.314c-2.458,0-4.145-1.639-4.145-4.519a229.305,229.305,0,0,1,2.651-29.5h1.4c4.579,0,7.809,2.136,9.062,5.76l4.579,13.308a45.932,45.932,0,0,1,1.88,6.455,32.836,32.836,0,0,1,.916-3.476l3.808-12.067c1.687-5.412,3.808-8.839,5.158-9.981h.771c3.663,0,6.073,2.384,6.6,7.052.627,5.363,1.591,20.16,1.591,26.963Z" transform="translate(-560.18 -1638.289)" fill="#fff"/>
      <path id="Tracé_58" data-name="Tracé 58" d="M982.752,1729.1h-1.3c-6.17,0-10.412-3.47-10.412-8.242,0-4.627,3.374-8.146,12.918-8.146h2.266v-.338c0-3.663-1.735-4.772-5.591-4.772-4.676,0-7.279,1.783-8.242,2.988h-.241v-2.073c0-2.892,2.6-6.362,9.448-6.362,5.784,0,10.99,2.7,10.99,11.665v5.977C992.585,1725.3,988.536,1729.1,982.752,1729.1Zm3.519-11.761h-2.314c-4.917,0-6.314,1.157-6.314,3.278,0,2.024,1.639,3.229,4.483,3.229,2.8,0,4.145-1.35,4.145-4Z" transform="translate(-927.687 -1692.969)" fill="#fff"/>
      <path id="Tracé_59" data-name="Tracé 59" d="M1238.918,1660.134c-6.652,0-12.243-5.6-12.243-13.63v-22.65h2.217c2.507,0,4.242,1.487,4.242,4.609v7.781a8.379,8.379,0,0,1,7.038-4.064c6.6,0,11.665,5.551,11.665,13.431C1251.836,1653.641,1246.823,1660.134,1238.918,1660.134Zm0-22.055c-3.278,0-5.736,3.321-5.736,7.484,0,6.145,2.555,8.673,6.411,8.673,3.229,0,5.543-3.172,5.543-7.484C1245.136,1640.26,1242.871,1638.079,1238.918,1638.079Z" transform="translate(-1156.332 -1623.854)" fill="#fff"/>
      <path id="Tracé_60" data-name="Tracé 60" d="M1527.87,1733.373c-6.411,0-11.472-4.242-11.472-11.81v-14.8h1.2c3.712,0,5.35,1.591,5.35,4.627v9.544c0,4.772,2.314,6.7,5.254,6.7,2.651,0,4.531-1.831,4.531-6.266v-14.605h1.157c3.76,0,5.35,1.591,5.35,4.627v9.737C1539.246,1729.227,1535.438,1733.373,1527.87,1733.373Z" transform="translate(-1415.333 -1697.093)" fill="#fff"/>
      <path id="Tracé_61" data-name="Tracé 61" d="M1805.148,1659.8c-5.35,0-8.243-2.925-8.243-8.328v-27.614h1.832c3.229,0,4.627,1.933,4.627,4.462v22.508c0,2.677,1.35,3.52,4.386,3.52h1.735v1.438C1809.486,1658.656,1807.992,1659.8,1805.148,1659.8Z" transform="translate(-1666.486 -1623.854)" fill="#fff"/>
    </g>
    <text id="Bienvenue" transform="translate(188 177.56)" fill="#242f57" font-size="14" font-family="Montserrat-Bold, Montserrat" font-weight="700"><tspan x="-44.233" y="0">Je suis dans</tspan></text>
  </g>
</svg>
