<svg xmlns="http://www.w3.org/2000/svg" width="39" height="39" viewBox="0 0 39 39">
  <g id="Groupe_849" data-name="Groupe 849" transform="translate(-26.5 -248.5)">
    <rect id="Rectangle_1757" data-name="Rectangle 1757" width="38" height="38" rx="19" transform="translate(27 249)" fill="none" stroke="#d1e2ed" stroke-width="1"/>
    <path id="icons8-gps" d="M10.16,2a.76.76,0,0,0-.693.436L3.077,16.595a.777.777,0,0,0,.976,1.065L10.07,15.3l6.025,2.353a.788.788,0,0,0,.278.052.772.772,0,0,0,.692-1.1L10.855,2.437A.762.762,0,0,0,10.16,2ZM10.07,4.918v8.7h0l-.571.224L5.3,15.484Z" transform="translate(46.848 252.911) rotate(45)" fill="#1e2d60"/>
  </g>
</svg>
