<svg xmlns="http://www.w3.org/2000/svg" width="37" height="39.902" viewBox="0 0 37 39.902">
  <g id="Groupe_1259" data-name="Groupe 1259" transform="translate(0)">
    <path id="Fill_1" data-name="Fill 1" d="M1075.3,249.062a9.318,9.318,0,0,1-9.306,9.325h-18.352a9.319,9.319,0,0,1-9.342-9.289v-.018s.011-8.157.026-12.26a.922.922,0,0,1,1.495-.722c4.4,3.475,12.256,9.808,12.354,9.891a7.543,7.543,0,0,0,4.68,1.64,7.441,7.441,0,0,0,4.681-1.661c.1-.065,7.783-6.209,12.245-9.74a.925.925,0,0,1,1.5.719c.02,4.071.02,12.114.02,12.114" transform="translate(-1038.3 -218.485)" fill="#a0aeb8" opacity="0.4" style="isolation: isolate"/>
    <path id="Tracé_2419" data-name="Tracé 2419" d="M1076.358,177.311a1.577,1.577,0,0,0-.586-1.376l-.926-.739-.047-.038-12.677-10.116a5.206,5.206,0,0,0-3.272-1.154h-.037a5.206,5.206,0,0,0-3.272,1.154l-13.65,10.893a1.909,1.909,0,0,0,0,2.751l13.65,10.892a5.2,5.2,0,0,0,3.272,1.154h.037a5.2,5.2,0,0,0,3.272-1.154l13.65-10.893A1.578,1.578,0,0,0,1076.358,177.311Zm-13.328-2.453h0l-1.442,1.422.342,2.011a.912.912,0,0,1-.363.9.885.885,0,0,1-.954.069l-1.781-.948-1.784.949a.883.883,0,0,1-.952-.068.917.917,0,0,1-.361-.9l.341-2.011-1.443-1.422a.919.919,0,0,1-.229-.942.9.9,0,0,1,.734-.622l1.99-.294.892-1.83a.9.9,0,0,1,.812-.511h0a.9.9,0,0,1,.81.512l.892,1.829,1.993.294a.9.9,0,0,1,.729.621A.914.914,0,0,1,1063.03,174.858Z" transform="translate(-1040.574 -163.89)" fill="#a0aeb8"/>
  </g>
</svg>
