<svg xmlns="http://www.w3.org/2000/svg" width="16" height="23" viewBox="0 0 16 23">
  <g id="Location" transform="translate(0 0)">
    <path id="Path_34175" d="M8.048,19h0a.956.956,0,0,1-.446-.133,20.908,20.908,0,0,1-5.53-5.083A10.168,10.168,0,0,1,0,7.974,8.006,8.006,0,0,1,12.076,1.112a8.149,8.149,0,0,1,3.924,7,11.641,11.641,0,0,1-3.648,7.572,21.323,21.323,0,0,1-3.839,3.151A1.36,1.36,0,0,1,8.048,19ZM7.992,5.418a2.707,2.707,0,1,0,0,5.414h.019a2.707,2.707,0,0,0-.017-5.414Z" transform="translate(0 0)" fill="#40cdde"/>
    <ellipse id="Ellipse_743" cx="6" cy="1" rx="6" ry="1" transform="translate(2 21)" fill="#40cdde" opacity="0.4"/>
  </g>
</svg>
