<svg xmlns="http://www.w3.org/2000/svg" width="11.758" height="11.672" viewBox="0 0 11.758 11.672">
  <path id="Tracé_2421" data-name="Tracé 2421" d="M8.425,4.078h0l-1.4,1.382.332,1.954A.887.887,0,0,1,7,8.286a.86.86,0,0,1-.927.067l-1.73-.921-1.734.922a.858.858,0,0,1-.925-.066.891.891,0,0,1-.351-.873l.331-1.954L.267,4.079a.893.893,0,0,1-.222-.915.879.879,0,0,1,.713-.6l1.933-.285L3.558.5A.876.876,0,0,1,4.347,0h0a.874.874,0,0,1,.787.5L6,2.274l1.936.286a.873.873,0,0,1,.709.6A.888.888,0,0,1,8.425,4.078Z" transform="translate(0 4.347) rotate(-30)" fill="#e4e8eb"/>
</svg>
