<svg xmlns="http://www.w3.org/2000/svg" width="17.259" height="16.988" viewBox="0 0 17.259 16.988">
  <path id="Tracé_2422" data-name="Tracé 2422" d="M13.736,6.648v0L11.452,8.9l.541,3.185a1.446,1.446,0,0,1-.575,1.421,1.4,1.4,0,0,1-1.512.109l-2.82-1.5-2.826,1.5a1.4,1.4,0,0,1-1.507-.108,1.453,1.453,0,0,1-.572-1.423L2.72,8.9.436,6.65A1.456,1.456,0,0,1,.073,5.158a1.433,1.433,0,0,1,1.163-.985l3.152-.465L5.8.809A1.429,1.429,0,0,1,7.086,0h0A1.425,1.425,0,0,1,8.373.811l1.413,2.9,3.157.466a1.423,1.423,0,0,1,1.155.983A1.448,1.448,0,0,1,13.736,6.648Z" transform="matrix(0.966, 0.259, -0.259, 0.966, 3.569, 0)" fill="#e4e8eb"/>
</svg>
