<svg xmlns="http://www.w3.org/2000/svg" width="36" height="36" viewBox="0 0 36 36">
  <g id="labul-store-36-36" transform="translate(2116 7123)">
    <rect id="Rectangle_1944" data-name="Rectangle 1944" width="36" height="36" transform="translate(-2116 -7123)" fill="#40cdde"/>
    <g id="Group_1645" data-name="Group 1645" transform="translate(-2109.37 -7119.79)">
      <circle id="Ellipse_33" data-name="Ellipse 33" cx="1.914" cy="1.914" r="1.914" transform="translate(9.762 10.476)" fill="#fff"/>
      <circle id="Ellipse_34" data-name="Ellipse 34" cx="1.056" cy="1.056" r="1.056" transform="translate(7.879 6.856)" fill="#fff"/>
      <path id="Path_142" data-name="Path 142" d="M326.622-87.567l-5.961-1.98a7.006,7.006,0,0,1-2.212.449,7.012,7.012,0,0,1-7.278-6.734,7.011,7.011,0,0,1,6.738-7.274,7.012,7.012,0,0,1,7.278,6.734,6.972,6.972,0,0,1-1.009,3.9l6.226,6.162-2.55-4.585a17.009,17.009,0,0,0,.841-5.5,10.517,10.517,0,0,0-10.917-10.1,10.516,10.516,0,0,0-10.107,10.911c.341,8.834,11.247,18.661,11.247,18.661S324.548-83.517,326.622-87.567Z" transform="translate(-307.664 106.505)" fill="#fff"/>
    </g>
  </g>
</svg>
