<svg xmlns="http://www.w3.org/2000/svg" width="192" height="192" viewBox="0 0 192 192">
  <g id="labul-store-192-192" transform="translate(2116 7123)">
    <rect id="Rectangle_1944" data-name="Rectangle 1944" width="192" height="192" transform="translate(-2116 -7123)" fill="#40cdde"/>
    <g id="Group_1645" data-name="Group 1645" transform="translate(-2080.641 -7105.881)">
      <circle id="Ellipse_33" data-name="Ellipse 33" cx="10.206" cy="10.206" r="10.206" transform="translate(52.061 55.871)" fill="#fff"/>
      <circle id="Ellipse_34" data-name="Ellipse 34" cx="5.633" cy="5.633" r="5.633" transform="translate(42.024 36.565)" fill="#fff"/>
      <path id="Path_142" data-name="Path 142" d="M408.775-5.506l-31.79-10.56a37.367,37.367,0,0,1-11.8,2.394A37.4,37.4,0,0,1,326.37-49.589a37.392,37.392,0,0,1,35.935-38.8,37.4,37.4,0,0,1,38.816,35.917,37.184,37.184,0,0,1-5.382,20.8L428.944,1.194l-13.6-24.453c3.07-10.11,4.843-20.106,4.487-29.329a56.093,56.093,0,0,0-58.225-53.874,56.087,56.087,0,0,0-53.9,58.194c1.817,47.115,59.985,99.523,59.985,99.523S397.712,16.094,408.775-5.506Z" transform="translate(-307.664 106.505)" fill="#fff"/>
    </g>
  </g>
</svg>
