<svg xmlns="http://www.w3.org/2000/svg" width="72" height="72" viewBox="0 0 72 72">
  <g id="labul-store-72-72" transform="translate(2116 7123)">
    <rect id="Rectangle_1944" data-name="Rectangle 1944" width="72" height="72" transform="translate(-2116 -7123)" fill="#40cdde"/>
    <g id="Group_1645" data-name="Group 1645" transform="translate(-2102.74 -7116.58)">
      <circle id="Ellipse_33" data-name="Ellipse 33" cx="3.827" cy="3.827" r="3.827" transform="translate(19.523 20.952)" fill="#fff"/>
      <circle id="Ellipse_34" data-name="Ellipse 34" cx="2.112" cy="2.112" r="2.112" transform="translate(15.759 13.712)" fill="#fff"/>
      <path id="Path_142" data-name="Path 142" d="M345.58-68.63l-11.921-3.96a14.013,14.013,0,0,1-4.425.9,14.024,14.024,0,0,1-14.556-13.469A14.022,14.022,0,0,1,328.154-99.71,14.024,14.024,0,0,1,342.71-86.241a13.945,13.945,0,0,1-2.018,7.8l12.452,12.324-5.1-9.17a34.019,34.019,0,0,0,1.682-11,21.035,21.035,0,0,0-21.834-20.2A21.033,21.033,0,0,0,307.68-84.666c.681,17.668,22.494,37.321,22.494,37.321S341.432-60.53,345.58-68.63Z" transform="translate(-307.664 106.505)" fill="#fff"/>
    </g>
  </g>
</svg>
