<svg xmlns="http://www.w3.org/2000/svg" width="55" height="55" viewBox="0 0 55 55">
  <g id="Icon-55-55" transform="translate(2116 7123)">
    <rect id="Rectangle_1944" data-name="Rectangle 1944" width="55" height="55" transform="translate(-2116 -7123)" fill="#40cdde"/>
    <g id="Group_1645" data-name="Group 1645" transform="translate(-2105.871 -7118.096)">
      <circle id="Ellipse_33" data-name="Ellipse 33" cx="2.924" cy="2.924" r="2.924" transform="translate(14.913 16.005)" fill="#fff"/>
      <circle id="Ellipse_34" data-name="Ellipse 34" cx="1.614" cy="1.614" r="1.614" transform="translate(12.038 10.474)" fill="#fff"/>
      <path id="Path_142" data-name="Path 142" d="M336.628-77.573,327.521-80.6a10.7,10.7,0,0,1-3.38.686A10.713,10.713,0,0,1,313.022-90.2a10.711,10.711,0,0,1,10.294-11.114,10.712,10.712,0,0,1,11.119,10.289,10.651,10.651,0,0,1-1.542,5.958l9.512,9.414-3.9-7a25.985,25.985,0,0,0,1.285-8.4,16.068,16.068,0,0,0-16.679-15.433,16.067,16.067,0,0,0-15.44,16.67c.52,13.5,17.183,28.509,17.183,28.509S333.459-71.385,336.628-77.573Z" transform="translate(-307.664 106.505)" fill="#fff"/>
    </g>
  </g>
</svg>
