<svg xmlns="http://www.w3.org/2000/svg" width="88" height="88" viewBox="0 0 88 88">
  <g id="Icon-88-88" transform="translate(2116 7123)">
    <rect id="Rectangle_1944" data-name="Rectangle 1944" width="88" height="88" transform="translate(-2116 -7123)" fill="#40cdde"/>
    <g id="Group_1645" data-name="Group 1645" transform="translate(-2099.793 -7115.154)">
      <circle id="Ellipse_33" data-name="Ellipse 33" cx="4.678" cy="4.678" r="4.678" transform="translate(23.862 25.608)" fill="#fff"/>
      <circle id="Ellipse_34" data-name="Ellipse 34" cx="2.582" cy="2.582" r="2.582" transform="translate(19.261 16.759)" fill="#fff"/>
      <path id="Path_142" data-name="Path 142" d="M354.006-60.214l-14.57-4.84a17.127,17.127,0,0,1-5.408,1.1,17.14,17.14,0,0,1-17.791-16.462A17.138,17.138,0,0,1,332.707-98.2,17.14,17.14,0,0,1,350.5-81.738a17.042,17.042,0,0,1-2.467,9.533L363.25-57.143l-6.232-11.208a41.578,41.578,0,0,0,2.056-13.442,25.709,25.709,0,0,0-26.686-24.692,25.707,25.707,0,0,0-24.7,26.672c.833,21.594,27.493,45.615,27.493,45.615S348.936-50.314,354.006-60.214Z" transform="translate(-307.664 106.505)" fill="#fff"/>
    </g>
  </g>
</svg>
