<svg xmlns="http://www.w3.org/2000/svg" width="196" height="196" viewBox="0 0 196 196">
  <g id="Icon-196-196" transform="translate(2116 7123)">
    <rect id="Rectangle_1944" data-name="Rectangle 1944" width="196" height="196" transform="translate(-2116 -7123)" fill="#40cdde"/>
    <g id="Group_1645" data-name="Group 1645" transform="translate(-2079.904 -7105.524)">
      <circle id="Ellipse_33" data-name="Ellipse 33" cx="10.419" cy="10.419" r="10.419" transform="translate(53.146 57.035)" fill="#fff"/>
      <circle id="Ellipse_34" data-name="Ellipse 34" cx="5.75" cy="5.75" r="5.75" transform="translate(42.899 37.327)" fill="#fff"/>
      <path id="Path_142" data-name="Path 142" d="M410.881-3.4l-32.452-10.78a38.146,38.146,0,0,1-12.045,2.444A38.176,38.176,0,0,1,326.759-48.4a38.171,38.171,0,0,1,36.684-39.605,38.175,38.175,0,0,1,39.625,36.665,37.959,37.959,0,0,1-5.494,21.233l33.9,33.548L417.589-21.526c3.134-10.321,4.943-20.525,4.58-29.94a57.261,57.261,0,0,0-59.438-55,57.256,57.256,0,0,0-55.024,59.407c1.854,48.1,61.234,101.6,61.234,101.6S399.588,18.648,410.881-3.4Z" transform="translate(-307.664 106.505)" fill="#fff"/>
    </g>
  </g>
</svg>
