<svg xmlns="http://www.w3.org/2000/svg" width="100" height="100" viewBox="0 0 100 100">
  <g id="Icon-100-100" transform="translate(2116 7123)">
    <rect id="Rectangle_1944" data-name="Rectangle 1944" width="100" height="100" transform="translate(-2116 -7123)" fill="#40cdde"/>
    <g id="Group_1645" data-name="Group 1645" transform="translate(-2097.583 -7114.084)">
      <circle id="Ellipse_33" data-name="Ellipse 33" cx="5.316" cy="5.316" r="5.316" transform="translate(27.115 29.1)" fill="#fff"/>
      <circle id="Ellipse_34" data-name="Ellipse 34" cx="2.934" cy="2.934" r="2.934" transform="translate(21.887 19.044)" fill="#fff"/>
      <path id="Path_142" data-name="Path 142" d="M360.326-53.9l-16.557-5.5a19.462,19.462,0,0,1-6.145,1.247,19.477,19.477,0,0,1-20.217-18.707,19.475,19.475,0,0,1,18.716-20.207,19.477,19.477,0,0,1,20.217,18.707,19.366,19.366,0,0,1-2.8,10.833L370.83-50.412l-7.082-12.736a47.248,47.248,0,0,0,2.337-15.275,29.215,29.215,0,0,0-30.325-28.059,29.212,29.212,0,0,0-28.074,30.31c.946,24.539,31.242,51.835,31.242,51.835S354.564-42.651,360.326-53.9Z" transform="translate(-307.664 106.505)" fill="#fff"/>
    </g>
  </g>
</svg>
