<svg xmlns="http://www.w3.org/2000/svg" width="1024" height="1024" viewBox="0 0 1024 1024">
  <g id="ItunesArtwork-1024x1024" transform="translate(2116 7123)">
    <rect id="Rectangle_1944" data-name="Rectangle 1944" width="1024" height="1024" transform="translate(-2116 -7123)" fill="#40cdde"/>
    <g id="Group_1645" data-name="Group 1645" transform="translate(-1927.417 -7031.698)">
      <circle id="Ellipse_33" data-name="Ellipse 33" cx="54.432" cy="54.432" r="54.432" transform="translate(277.661 297.979)" fill="#fff"/>
      <circle id="Ellipse_34" data-name="Ellipse 34" cx="30.041" cy="30.041" r="30.041" transform="translate(224.126 195.012)" fill="#fff"/>
      <path id="Path_142" data-name="Path 142" d="M846.923,432.155,677.376,375.837A199.292,199.292,0,0,1,614.448,388.6c-110.089,4.238-202.773-81.521-207.02-191.557S488.99-5.628,599.081-9.871,801.853,71.649,806.1,181.686a198.313,198.313,0,0,1-28.7,110.931l177.094,175.27L881.967,337.468c16.374-53.922,25.827-107.23,23.929-156.42C899.529,16,760.5-112.644,595.365-106.278S301.526,39.037,307.89,204.092c9.689,251.281,319.918,530.791,319.918,530.791S787.923,547.356,846.923,432.155Z" transform="translate(-307.664 106.505)" fill="#fff"/>
    </g>
  </g>
</svg>
