<svg id="Edit" xmlns="http://www.w3.org/2000/svg" width="19.556" height="22" viewBox="0 0 19.556 22">
  <path id="Fill_3" data-name="Fill 3" d="M9.124.082,15.86,5.444a.377.377,0,0,1,.063.528L7.938,16.223a2.635,2.635,0,0,1-2.034,1l-4.359.053a.5.5,0,0,1-.489-.383L.065,12.654a2.6,2.6,0,0,1,.5-2.208L8.592.145A.377.377,0,0,1,9.124.082" transform="translate(0 4.719)" fill="#1e2d60"/>
  <path id="Fill_5" data-name="Fill 5" d="M8.709,6.968l-1.3,1.6a.376.376,0,0,1-.528.059C5.3,7.366,1.261,4.136.14,3.241a.375.375,0,0,1-.054-.531L1.338,1.177A3.243,3.243,0,0,1,6.054.86L7.89,2.3A3.767,3.767,0,0,1,9.317,4.456a2.926,2.926,0,0,1-.608,2.512" transform="translate(10.166 0)" fill="#1e2d60"/>
</svg>
