<svg xmlns="http://www.w3.org/2000/svg" width="81" height="59.003" viewBox="0 0 81 59.003">
  <g id="Groupe_909" data-name="Groupe 909" transform="translate(-161.5 -703.497)">
    <path id="Union_5" data-name="Union 5" d="M913.562-4883.763v-9.728h.793c2.439,0,3.516,1.046,3.516,3.042v6.274c0,3.138,1.522,4.4,3.454,4.4,1.743,0,2.979-1.2,2.979-4.119v-9.6h.761c2.471,0,3.516,1.046,3.516,3.042v6.4c0,5.324-2.5,8.048-7.478,8.048C916.889-4876,913.562-4878.789,913.562-4883.763Zm-19.734-.877V-4899h1.458a2.6,2.6,0,0,1,2.788,2.922v4.933a5.54,5.54,0,0,1,4.625-2.577c4.341,0,7.668,3.52,7.668,8.515,0,5.09-3.3,9.205-8.492,9.205C897.5-4876,893.827-4879.551,893.827-4884.641Zm4.277-.6c0,3.9,1.679,5.5,4.215,5.5,2.123,0,3.644-2.012,3.644-4.745,0-4.116-1.489-5.5-4.088-5.5C899.721-4889.983,898.1-4887.878,898.1-4885.238Zm-14.829,9.143c-4.055,0-6.843-2.282-6.843-5.418,0-3.042,2.218-5.356,8.492-5.356h1.489v-.221c0-2.407-1.141-3.136-3.676-3.136-3.074,0-4.784,1.171-5.418,1.963h-.159v-1.362c0-1.9,1.711-4.183,6.211-4.183,3.8,0,7.224,1.775,7.224,7.669v3.928c0,3.612-2.662,6.116-6.465,6.116Zm-2.5-5.577c0,1.332,1.078,2.124,2.947,2.124,1.838,0,2.726-.888,2.726-2.63v-1.648h-1.521C881.692-4883.827,880.772-4883.067,880.772-4881.673Zm-11.851,5.482c-5.1,0-7.922-2.827-7.922-7.977v-13.724h1.774c1.775,0,2.694,1,2.694,3.14v10.3c0,3.267.761,4.459,4.024,4.459H870.6a13.015,13.015,0,0,0,4.531-.785v1.476c0,1.883-.95,3.109-4.531,3.109Zm63.808-5.309V-4899h1.2c2.122,0,3.042,1.226,3.042,2.827v14.264c0,1.7.886,2.232,2.883,2.232H941v.911c0,1.822-.982,2.544-2.852,2.544C934.631-4876.223,932.729-4878.077,932.729-4881.5Z" transform="translate(-699 5638)" fill="#40cdde" stroke="rgba(0,0,0,0)" stroke-miterlimit="10" stroke-width="1"/>
    <path id="Union_6" data-name="Union 6" d="M864.8-4887a9.19,9.19,0,0,1,8.415-9.9,9.178,9.178,0,0,1,9.767,8.557,15.157,15.157,0,0,1-.558,4.861l2.35,3.957-5.582-5.233a6.211,6.211,0,0,0,.752-3.461,6.118,6.118,0,0,0-6.511-5.705,6.127,6.127,0,0,0-5.609,6.6,6.12,6.12,0,0,0,6.512,5.7,5.981,5.981,0,0,0,1.9-.46l5.225,1.562c-1.672,3.625-6.342,9.592-6.342,9.592S865.369-4879.237,864.8-4887Zm9.213,2.563a1.711,1.711,0,0,1-1.185-2.09,1.673,1.673,0,0,1,2.053-1.206,1.707,1.707,0,0,1,1.185,2.088,1.681,1.681,0,0,1-1.617,1.266A1.658,1.658,0,0,1,874.013-4884.434ZM871.835-4889a.938.938,0,0,1-.816-1.041.93.93,0,0,1,1.023-.831.936.936,0,0,1,.815,1.041.93.93,0,0,1-.917.836A.938.938,0,0,1,871.835-4889Z" transform="translate(-672.775 5600.921)" fill="#40cdde" stroke="rgba(0,0,0,0)" stroke-miterlimit="10" stroke-width="1"/>
  </g>
</svg>
