<svg xmlns="http://www.w3.org/2000/svg" width="48" height="48" viewBox="0 0 48 48">
  <g id="labul-store-48-48" transform="translate(2116 7123)">
    <rect id="Rectangle_1944" data-name="Rectangle 1944" width="48" height="48" transform="translate(-2116 -7123)" fill="#40cdde"/>
    <g id="Group_1645" data-name="Group 1645" transform="translate(-2107.16 -7118.72)">
      <circle id="Ellipse_33" data-name="Ellipse 33" cx="2.552" cy="2.552" r="2.552" transform="translate(13.015 13.968)" fill="#fff"/>
      <circle id="Ellipse_34" data-name="Ellipse 34" cx="1.408" cy="1.408" r="1.408" transform="translate(10.506 9.141)" fill="#fff"/>
      <path id="Path_142" data-name="Path 142" d="M332.942-81.255l-7.948-2.64a9.342,9.342,0,0,1-2.95.6,9.349,9.349,0,0,1-9.7-8.979,9.348,9.348,0,0,1,8.984-9.7,9.349,9.349,0,0,1,9.7,8.979,9.3,9.3,0,0,1-1.345,5.2l8.3,8.216-3.4-6.113a22.679,22.679,0,0,0,1.122-7.332,14.023,14.023,0,0,0-14.556-13.468,14.022,14.022,0,0,0-13.475,14.549c.454,11.779,15,24.881,15,24.881S330.176-75.855,332.942-81.255Z" transform="translate(-307.664 106.505)" fill="#fff"/>
    </g>
  </g>
</svg>
