<svg id="Composant_473_2" data-name="Composant 473 – 2" xmlns="http://www.w3.org/2000/svg" width="30" height="30" viewBox="0 0 30 30">
  <g id="Profile">
    <path id="Tracé_3147" data-name="Tracé 3147" d="M67.317,426.632a7.011,7.011,0,0,1-1.639,4.529c-.072,0-.138.013-.21.02s-.138.007-.21.013a5.466,5.466,0,0,0-1.095.256,7.1,7.1,0,0,0-3.31,2.242,4.949,4.949,0,0,1-.623.033h-.026a7.067,7.067,0,0,1-7.065-7.039v-.052a7.088,7.088,0,1,1,14.177,0Z" transform="translate(-49.516 -419.54)" fill="#fa5890"/>
    <path id="Tracé_3148" data-name="Tracé 3148" d="M60.574,455.568c-.728.039-1.481.052-2.248.052-5.814,0-10.716-.944-10.716-4.588,0-3.441,4.391-4.444,9.746-4.542a8.637,8.637,0,0,0,.3,4.332A13.43,13.43,0,0,0,60.574,455.568Z" transform="translate(-47.61 -429.254)" fill="#fa5890"/>
  </g>
  <g id="Heart" transform="translate(11.889 12.796)">
    <path id="Heart-2" d="M74.835,456.92h0l-.235-.145a34.561,34.561,0,0,1-5.769-4.492,11.766,11.766,0,0,1-2.725-4.345,7.012,7.012,0,0,1,.129-4.776,5.51,5.51,0,0,1,3.43-3.2,4.033,4.033,0,0,1,.8-.189h.109a5.175,5.175,0,0,1,.76-.054h.1a5.67,5.67,0,0,1,1.658.3h.053a.3.3,0,0,1,.081.054,3.043,3.043,0,0,1,.571.237l.344.153a2.351,2.351,0,0,1,.258.172c.052.038.1.069.132.09l.037.022a2.191,2.191,0,0,1,.235.15,5.635,5.635,0,0,1,3.446-1.177h.04a5.285,5.285,0,0,1,1.684.263,5.451,5.451,0,0,1,3.4,3.185,7.164,7.164,0,0,1,.14,4.773,11.565,11.565,0,0,1-2.725,4.355,34.932,34.932,0,0,1-5.733,4.492l-.227.136Z" transform="translate(-65.749 -439.716)" fill="#fa5890"/>
  </g>
</svg>
