<svg id="amis-30x29" xmlns="http://www.w3.org/2000/svg" width="29" height="30" viewBox="0 0 29 30">
  <g id="Profile">
    <path id="Profile-2" d="M93.236,357.29A6.9,6.9,0,0,0,86.33,364.2v.045a6.883,6.883,0,0,0,6.881,6.855h.026a6.9,6.9,0,1,0,0-13.806Z" transform="translate(-82.8 -357.29)" fill="#ff9417"/>
    <path id="Path_3121" data-name="Path 3121" d="M93.872,391.225l-.332,1.832c-.747.038-1.519.057-2.3.057-5.655,0-10.436-.919-10.436-4.468s4.806-4.436,10.436-4.436c.121,0,.236,0,.357.006a2.568,2.568,0,0,0-.67,4.149Z" transform="translate(-80.8 -366.694)" fill="#ff9417"/>
  </g>
  <path id="Star-2" d="M113.01,387.905a.972.972,0,0,0-.282.857l.786,4.348a.954.954,0,0,1-.4.954.972.972,0,0,1-1.034.071l-3.914-2.042a1,1,0,0,0-.442-.116h-.24a.7.7,0,0,0-.238.08l-3.915,2.051a1.036,1.036,0,0,1-.627.1.983.983,0,0,1-.786-1.123l.786-4.348a.989.989,0,0,0-.282-.866l-3.191-3.093a.954.954,0,0,1-.238-1,.994.994,0,0,1,.786-.663l4.392-.637a.983.983,0,0,0,.779-.538l1.935-3.968a.924.924,0,0,1,.177-.239l.079-.061a.587.587,0,0,1,.142-.115l.1-.036.151-.062h.372a.99.99,0,0,1,.777.53l1.961,3.95a.982.982,0,0,0,.733.538l4.393.637a1,1,0,0,1,.8.663.96.96,0,0,1-.257,1Z" transform="translate(-87.619 -364.252)" fill="#ff9417"/>
</svg>
