<svg xmlns="http://www.w3.org/2000/svg" width="38" height="38" viewBox="0 0 38 38">
  <rect id="Rectangle_1804" data-name="Rectangle 1804" width="38" height="38" rx="19" fill="#f0f5f7"/>
  <g id="Edit" transform="translate(11 10)">
    <path id="Fill_3" data-name="Fill 3" d="M7.465.067l5.511,4.387a.309.309,0,0,1,.052.432L6.495,13.273A2.156,2.156,0,0,1,4.83,14.1l-3.567.043a.405.405,0,0,1-.4-.314L.053,10.353A2.126,2.126,0,0,1,.464,8.546L7.03.119A.309.309,0,0,1,7.465.067" transform="translate(0 3.861)" fill="#6a8596"/>
    <path id="Fill_5" data-name="Fill 5" d="M7.126,5.7,6.063,7.008a.307.307,0,0,1-.432.049c-1.292-1.03-4.6-3.672-5.517-4.4A.307.307,0,0,1,.07,2.217L1.095.963A2.653,2.653,0,0,1,4.953.7l1.5,1.179A3.082,3.082,0,0,1,7.623,3.646a2.394,2.394,0,0,1-.5,2.055" transform="translate(8.318 0)" fill="#6a8596" opacity="0.4"/>
  </g>
</svg>
