<svg id="tous-30x31" xmlns="http://www.w3.org/2000/svg" width="30" height="31" viewBox="0 0 30 31">
  <g id="Profile">
    <path id="Profile-2" d="M129.163,419.54a7.259,7.259,0,0,0-7.308,7.209v.053a7.24,7.24,0,0,0,7.308,7.155h.007a7.209,7.209,0,1,0-.007-14.417Zm-1.155,22.193a10.191,10.191,0,0,1,.925-4.251c-5.849.027-10.813.973-10.813,4.63,0,3.7,5.059,4.664,11.043,4.664h.169A10.224,10.224,0,0,1,128.008,441.733Z" transform="translate(-118.12 -419.54)" fill="#a0aeb8"/>
  </g>
  <path id="icons8-globe" d="M145.136,439.716a8.874,8.874,0,1,0,8.873,8.873A8.873,8.873,0,0,0,145.136,439.716Zm-.384.814v3.819a15.382,15.382,0,0,1-2.791-.315,9.529,9.529,0,0,1,.518-1.275A3.8,3.8,0,0,1,144.752,440.53Zm.769,0a3.8,3.8,0,0,1,2.273,2.23,9.6,9.6,0,0,1,.52,1.28,15.591,15.591,0,0,1-2.793.309Zm-2.625.269a6.632,6.632,0,0,0-1.1,1.614,10.433,10.433,0,0,0-.581,1.441,10.678,10.678,0,0,1-2.026-.757,8.088,8.088,0,0,1,3.711-2.3Zm4.481,0a8.079,8.079,0,0,1,3.709,2.3,10.089,10.089,0,0,1-2.021.766,10.47,10.47,0,0,0-.584-1.446,6.6,6.6,0,0,0-1.1-1.615Zm4.212,2.9a8.05,8.05,0,0,1,1.643,4.51h-3.476a15.875,15.875,0,0,0-.475-3.6,10.459,10.459,0,0,0,2.308-.908Zm-12.909.006a11.2,11.2,0,0,0,2.315.894,15.829,15.829,0,0,0-.477,3.609h-3.476a8.059,8.059,0,0,1,1.638-4.5Zm3.065,1.077a16.193,16.193,0,0,0,3.008.341V448.2h-3.466A15.157,15.157,0,0,1,141.744,444.778Zm6.786.005a15.108,15.108,0,0,1,.456,3.422h-3.465v-3.086A16.391,16.391,0,0,0,148.53,444.783Zm-11.489,4.191h3.476a15.842,15.842,0,0,0,.475,3.6,10.455,10.455,0,0,0-2.309.907A8.062,8.062,0,0,1,137.041,448.974Zm4.245,0h3.466v3.086a16.341,16.341,0,0,0-3.01.336A15.157,15.157,0,0,1,141.286,448.974Zm4.235,0h3.465a15.123,15.123,0,0,1-.457,3.427,16.2,16.2,0,0,0-3.008-.341Zm4.235,0h3.476a8.052,8.052,0,0,1-1.638,4.5,11.2,11.2,0,0,0-2.315-.894A15.9,15.9,0,0,0,149.755,448.974Zm-5,3.855v3.819a3.8,3.8,0,0,1-2.273-2.229,9.611,9.611,0,0,1-.52-1.281A15.592,15.592,0,0,1,144.752,452.829Zm.769,0a15.51,15.51,0,0,1,2.791.315,9.539,9.539,0,0,1-.519,1.276,3.805,3.805,0,0,1-2.273,2.23Zm-4.312.489a10.5,10.5,0,0,0,.583,1.446,6.631,6.631,0,0,0,1.1,1.615,8.09,8.09,0,0,1-3.709-2.3A10.04,10.04,0,0,1,141.208,453.318Zm7.853.006a10.687,10.687,0,0,1,2.027.757,8.089,8.089,0,0,1-3.712,2.3,6.632,6.632,0,0,0,1.1-1.615,10.481,10.481,0,0,0,.58-1.443Z" transform="translate(-124.009 -426.463)" fill="#a0aeb8"/>
</svg>
