<svg id="voisins-30x30" xmlns="http://www.w3.org/2000/svg" width="30" height="30" viewBox="0 0 30 30">
  <g id="Profile">
    <path id="Profile-2" d="M247.66,450.86a6.99,6.99,0,0,0-6.98,6.986v.052a6.962,6.962,0,0,0,6.961,6.935h.026a6.986,6.986,0,1,0-.006-13.973Z" transform="translate(-237.109 -450.86)" fill="#40cdde"/>
    <path id="Path_3117" data-name="Path 3117" d="M245.249,482.962a5.6,5.6,0,0,0,1.5,3.822c-.342.006-.691.013-1.046.013-5.727,0-10.557-.93-10.557-4.52s4.862-4.488,10.557-4.488c.956,0,1.885.026,2.776.09A5.606,5.606,0,0,0,245.249,482.962Z" transform="translate(-235.15 -460.402)" fill="#40cdde"/>
  </g>
  <path id="Path_3118" data-name="Path 3118" d="M268.7,481.5a3.244,3.244,0,0,0-2.769,1.563l-2.563-1.1a4.62,4.62,0,0,0-.479-3.832l1.49-1.139a3.692,3.692,0,1,0-.554-.748l-1.5,1.148a4.647,4.647,0,1,0,.676,5.423l2.567,1.1A3.248,3.248,0,1,0,268.7,481.5Zm-1.86-9.069h0a2.092,2.092,0,1,1-2.093,2.091A2.1,2.1,0,0,1,266.844,472.432Zm-7.905,11.392a3.255,3.255,0,0,1,0-6.51h0a3.254,3.254,0,1,1,0,6.509Zm9.765,2.792a1.86,1.86,0,1,1,1.86-1.86A1.86,1.86,0,0,1,268.7,486.614Z" transform="translate(-241.959 -458.009)" fill="#40cdde"/>
</svg>
