<svg xmlns="http://www.w3.org/2000/svg" width="96" height="96" viewBox="0 0 96 96">
  <g id="labul-store-96-96" transform="translate(2116 7123)">
    <rect id="Rectangle_1944" data-name="Rectangle 1944" width="96" height="96" transform="translate(-2116 -7123)" fill="#40cdde"/>
    <g id="Group_1645" data-name="Group 1645" transform="translate(-2098.32 -7114.44)">
      <circle id="Ellipse_33" data-name="Ellipse 33" cx="5.103" cy="5.103" r="5.103" transform="translate(26.031 27.936)" fill="#fff"/>
      <circle id="Ellipse_34" data-name="Ellipse 34" cx="2.816" cy="2.816" r="2.816" transform="translate(21.012 18.282)" fill="#fff"/>
      <path id="Path_142" data-name="Path 142" d="M358.219-56.005l-15.9-5.28a18.684,18.684,0,0,1-5.9,1.2,18.7,18.7,0,0,1-19.408-17.958,18.7,18.7,0,0,1,17.967-19.4,18.7,18.7,0,0,1,19.408,17.958,18.592,18.592,0,0,1-2.691,10.4l16.6,16.432-6.8-12.227a45.358,45.358,0,0,0,2.243-14.664,28.046,28.046,0,0,0-29.112-26.937,28.044,28.044,0,0,0-26.951,29.1c.908,23.558,29.992,49.762,29.992,49.762S352.688-45.205,358.219-56.005Z" transform="translate(-307.664 106.505)" fill="#fff"/>
    </g>
  </g>
</svg>
