<svg id="Groupe_41" data-name="Groupe 41" xmlns="http://www.w3.org/2000/svg" width="185.542" height="53.397" viewBox="0 0 185.542 53.397">
  <path id="Tracé_137" data-name="Tracé 137" d="M488.749,3653.646h-3.866c-11.745,0-18.237-6.565-18.237-18.529v-31.877h4.085c4.085,0,6.2,2.333,6.2,7.294v23.927c0,7.586,1.751,10.359,9.264,10.359h2.553A29.7,29.7,0,0,0,499.181,3643v3.429C499.181,3650.8,496.992,3653.646,488.749,3653.646Z" transform="translate(-466.646 -3600.686)" fill="#40cdde"/>
  <path id="Tracé_138" data-name="Tracé 138" d="M742.495,3714.843h-1.97c-9.337,0-15.756-5.252-15.756-12.475,0-7,5.106-12.327,19.55-12.327h3.428v-.511c0-5.544-2.626-7.222-8.462-7.222-7.076,0-11.015,2.7-12.474,4.522h-.365v-3.137c0-4.376,3.939-9.628,14.3-9.628,8.754,0,16.632,4.084,16.632,17.652v9.046C757.376,3709.08,751.249,3714.843,742.495,3714.843Zm5.325-17.8h-3.5c-7.44,0-9.556,1.75-9.556,4.961,0,3.063,2.48,4.887,6.784,4.887,4.231,0,6.274-2.043,6.274-6.055Z" transform="translate(-688.921 -3661.666)" fill="#40cdde"/>
  <path id="Tracé_139" data-name="Tracé 139" d="M1034.467,3638.273c-10.067,0-18.528-8.243-18.528-20.062v-33.336h3.355c3.793,0,6.419,2.188,6.419,6.783v11.453c1.97-2.845,5.325-5.982,10.65-5.982,9.994,0,17.653,8.171,17.653,19.77C1054.017,3628.717,1046.431,3638.273,1034.467,3638.273Zm0-32.462c-4.96,0-8.68,4.888-8.68,11.015,0,9.046,3.866,12.767,9.7,12.767,4.887,0,8.389-4.669,8.389-11.016C1043.878,3609.021,1040.449,3605.812,1034.467,3605.812Z" transform="translate(-939.657 -3584.876)" fill="#40cdde"/>
  <path id="Tracé_140" data-name="Tracé 140" d="M1363.3,3719.579c-9.7,0-17.361-6.419-17.361-17.872v-22.395h1.823c5.617,0,8.1,2.407,8.1,7v14.443c0,7.222,3.5,10.14,7.951,10.14,4.012,0,6.857-2.772,6.857-9.483v-22.1h1.751c5.69,0,8.1,2.407,8.1,7v14.735C1380.513,3713.305,1374.75,3719.579,1363.3,3719.579Z" transform="translate(-1223.823 -3666.182)" fill="#40cdde"/>
  <path id="Tracé_141" data-name="Tracé 141" d="M1677.91,3637.763c-8.1,0-12.474-4.3-12.474-12.256v-40.631h2.772c4.887,0,7,2.845,7,6.564v33.118c0,3.939,2.042,5.18,6.638,5.18h2.626v2.115C1684.475,3636.084,1682.214,3637.763,1677.91,3637.763Z" transform="translate(-1498.933 -3584.876)" fill="#40cdde"/>
</svg>
