<svg id="voisin-20x19" xmlns="http://www.w3.org/2000/svg" width="22" height="27.001" viewBox="0 0 22 27.001">
  <path id="Subtraction_8" data-name="Subtraction 8" d="M-370,5658a1.043,1.043,0,0,1-.976-.777,9.413,9.413,0,0,0-1.977-3.715,8.038,8.038,0,0,0-.758-.532,20.675,20.675,0,0,1-4.429-3.69A10.915,10.915,0,0,1-381,5642a11.014,11.014,0,0,1,11-11,10.926,10.926,0,0,1,7.779,3.223A10.933,10.933,0,0,1-359,5642a10.912,10.912,0,0,1-2.861,7.284,20.66,20.66,0,0,1-4.427,3.689,8.039,8.039,0,0,0-.761.533,9.385,9.385,0,0,0-1.975,3.715A1.05,1.05,0,0,1-370,5658Zm0-14.1c-3.364,0-5,.667-5,2.041s1.635,2.055,5,2.055,5-.667,5-2.041S-366.635,5643.9-370,5643.9Zm0-7.9a3.365,3.365,0,0,0-2.343.926,3.093,3.093,0,0,0-.966,2.248,3.1,3.1,0,0,0,.966,2.249,3.362,3.362,0,0,0,2.343.927,3.362,3.362,0,0,0,2.343-.927,3.1,3.1,0,0,0,.965-2.249,3.092,3.092,0,0,0-.965-2.248A3.364,3.364,0,0,0-370,5636Z" transform="translate(381 -5631)" fill="#40cdde"/>
</svg>
