<svg id="besoin-famille-20x19" xmlns="http://www.w3.org/2000/svg" width="18" height="18" viewBox="0 0 18 18">
  <path id="icons8-family_two_men" d="M8.5,3A2.8,2.8,0,0,0,5.636,5.739,2.8,2.8,0,0,0,8.5,8.478a2.8,2.8,0,0,0,2.864-2.739A2.8,2.8,0,0,0,8.5,3Zm9,0a2.8,2.8,0,0,0-2.864,2.739,2.866,2.866,0,0,0,5.727,0A2.8,2.8,0,0,0,17.5,3ZM8.091,10.043A4.005,4.005,0,0,0,4,13.957v5.478A1.6,1.6,0,0,0,5.636,21H8.909a3.2,3.2,0,0,1,3.273-3.13h1.636A3.2,3.2,0,0,1,17.091,21h3.273A1.6,1.6,0,0,0,22,19.435V13.957a4.005,4.005,0,0,0-4.091-3.913ZM13,11.609a2.35,2.35,0,1,1-2.455,2.348A2.4,2.4,0,0,1,13,11.609Z" transform="translate(-4 -3)" fill="#aa87e5"/>
</svg>
