<svg id="alimentation" xmlns="http://www.w3.org/2000/svg" width="38" height="38" viewBox="0 0 38 38">
  <rect id="Rectangle_8" data-name="Rectangle 8" width="38" height="38" rx="19" fill="#aa87e5" opacity="0.2"/>
  <g id="lotus-24x21" transform="translate(7 9)">
    <path id="Tracé_3137" data-name="Tracé 3137" d="M116.9,822.263a12.02,12.02,0,0,1,3.184-1.651,12.983,12.983,0,0,0-.955-5.532,13.022,13.022,0,0,0-3.011,1.736,15.357,15.357,0,0,1,.794,4.874C116.914,821.881,116.912,822.072,116.9,822.263Z" transform="translate(-99.965 -811.273)" fill="#aa87e5"/>
    <path id="Tracé_3138" data-name="Tracé 3138" d="M64.2,817.96a15.355,15.355,0,0,1,1.087-6.216,14.029,14.029,0,0,0-3.649-2.194.033.033,0,0,0,0,.014,13.919,13.919,0,0,0-.985,6.653A12.015,12.015,0,0,1,64.2,817.96Z" transform="translate(-57.202 -807.094)" fill="#aa87e5"/>
    <path id="Tracé_3139" data-name="Tracé 3139" d="M67.986,851.712a15.238,15.238,0,0,1-3.2-8.062,11.374,11.374,0,0,0-3.515-1.89A13.99,13.99,0,0,0,67.986,851.712Z" transform="translate(-57.729 -831.608)" fill="#aa87e5"/>
    <path id="Tracé_3140" data-name="Tracé 3140" d="M48.71,839.664a11.393,11.393,0,0,0-2.82-.354,11.406,11.406,0,0,0,10.316,11.343A14.7,14.7,0,0,1,48.71,839.664Z" transform="translate(-45.89 -829.722)" fill="#aa87e5"/>
    <path id="Tracé_3141" data-name="Tracé 3141" d="M112.879,839.777a13.774,13.774,0,0,1-6.969,10.864,11.411,11.411,0,0,0,10.2-11.331A11.342,11.342,0,0,0,112.879,839.777Z" transform="translate(-92.109 -829.722)" fill="#aa87e5"/>
    <path id="Tracé_3142" data-name="Tracé 3142" d="M111.3,842.37a11.267,11.267,0,0,0-3.182,1.8,15.154,15.154,0,0,1-3.338,8.177A13.029,13.029,0,0,0,111.3,842.37Z" transform="translate(-91.235 -832.078)" fill="#aa87e5"/>
    <path id="Tracé_3143" data-name="Tracé 3143" d="M85.83,816.851c.044-.07.083-.142.122-.215.021-.037.041-.072.06-.11.048-.084.092-.168.136-.254l.021-.04c.1-.191.193-.387.283-.583.032-.068.064-.138.094-.208.044-.1.087-.2.129-.3.067-.161.131-.324.191-.488.048-.124.092-.25.136-.376.018-.051.037-.1.051-.154.037-.105.071-.212.1-.32s.064-.21.092-.317c.023-.07.041-.142.06-.215q.1-.357.173-.714c.023-.1.044-.208.062-.31.007-.03.014-.061.018-.091.016-.084.032-.168.044-.252.021-.119.039-.238.058-.357v0c.012-.075.021-.147.03-.222,0-.021.007-.042.009-.065.009-.079.018-.159.028-.24v0c.018-.166.035-.331.046-.5v0c.007-.1.014-.191.018-.285s.009-.191.014-.285c0-.072,0-.145.007-.219,0-.112,0-.222,0-.334v-.019c0-.117,0-.233,0-.35,0-.138-.009-.275-.014-.413,0-.061-.007-.124-.012-.184l-.014-.184c-.016-.212-.037-.425-.062-.639-.014-.119-.028-.236-.046-.355-.012-.082-.023-.163-.037-.245l-.028-.168c-.048-.28-.1-.558-.168-.835-.021-.093-.044-.184-.067-.278-.044-.182-.094-.366-.147-.548l-.083-.273c-.037-.119-.074-.238-.115-.357-.035-.1-.071-.21-.111-.313l-.014-.04c-.147-.4-.311-.793-.495-1.181-.037-.084-.076-.166-.117-.247-.058-.117-.115-.233-.177-.348s-.12-.226-.182-.338a.16.16,0,0,0-.016-.026c-.053-.1-.11-.194-.166-.292l-.046-.075c-.058-.1-.117-.2-.18-.292-.069-.112-.143-.222-.216-.331s-.147-.219-.226-.327-.136-.191-.207-.287c-.168-.226-.343-.448-.527-.665-.083-.1-.168-.2-.256-.3-.182-.205-.371-.408-.566-.607l-.028.028A14.753,14.753,0,0,0,82,800.684c-.058.082-.115.161-.17.243-.069.1-.138.2-.2.306s-.131.205-.2.31-.127.208-.189.313c-.122.212-.239.425-.35.639-.1.194-.2.392-.29.593-.046.1-.092.2-.136.3s-.1.226-.143.341-.094.231-.138.35-.083.222-.122.334-.069.205-.1.31-.069.217-.1.324-.055.189-.081.282c-.007.026-.014.049-.021.072-.021.075-.041.149-.06.222-.012.047-.023.093-.035.138l-.055.231c-.078.345-.145.691-.2,1.041-.035.222-.064.446-.09.67q-.021.168-.035.336v0q-.045.49-.055.98c0,.124,0,.245,0,.369s0,.229,0,.343,0,.2.009.3c.007.138.014.273.023.411v0c.014.168.028.334.046.5.007.07.014.14.023.21.009.086.021.173.035.257l.007.056c.046.324.1.646.168.968q.048.238.1.476s0,0,0,0c.037.152.076.3.12.455a.274.274,0,0,0,.012.047c.081.294.173.583.272.87l.035.1c.048.14.1.278.154.415.117.308.249.614.389.915.06.131.124.261.191.392a.928.928,0,0,0,.048.1c.067.135.138.268.212.4,0,0,0,0,0,0,.071.131.145.261.223.39.021.04.044.077.069.117.048.084.1.166.152.247.039.061.076.121.117.182q.138.214.29.427c.078.114.159.226.246.338,0,0,0,0,0,0,.1.135.2.268.311.4v0c.14.175.288.35.437.52l.138.154c.06.068.12.133.182.2l.041.042c.055.061.115.121.173.182h0a.133.133,0,0,0,.016.019l.044.044.025-.026,0,0,.039-.04c.014-.016.03-.03.044-.047l.035-.035v0c.058-.056.111-.112.161-.168l.028-.028.023-.028c.062-.063.12-.128.177-.194s.092-.1.136-.156l.09-.1s0,0,0,0c.122-.142.242-.289.357-.436.071-.091.143-.182.212-.275.092-.124.184-.25.272-.376Q85.506,817.419,85.83,816.851Z" transform="translate(-71.555 -798.88)" fill="#aa87e5"/>
  </g>
</svg>
