<svg id="alimentation" xmlns="http://www.w3.org/2000/svg" width="38" height="38" viewBox="0 0 38 38">
  <rect id="Rectangle_8" data-name="Rectangle 8" width="38" height="38" rx="19" fill="#aa87e5" opacity="0.2"/>
  <path id="icons8-variation" d="M7.091,3a4.091,4.091,0,1,0,4.091,4.091A4.1,4.1,0,0,0,7.091,3ZM18.909,3a4.091,4.091,0,1,0,2.9,1.193A4.087,4.087,0,0,0,18.909,3ZM7.091,3.909A3.182,3.182,0,1,1,3.909,7.091,3.174,3.174,0,0,1,7.091,3.909Zm11.733,0c.1,0,.188.009.284.014l2.969,2.969a3.2,3.2,0,0,1-.128,1.151l-1.974-1.96L17.957,4.051A3.2,3.2,0,0,1,18.824,3.909Zm-1.818.639,4.446,4.446a3.154,3.154,0,0,1-.3.341,3.36,3.36,0,0,1-.341.3L16.366,5.188a3.361,3.361,0,0,1,.3-.341A2.993,2.993,0,0,1,17.006,4.548ZM15.869,6.139l3.991,3.991a3.2,3.2,0,0,1-1.151.128l-1.818-1.8L15.741,7.29A3.2,3.2,0,0,1,15.869,6.139ZM7.091,14.818a4.091,4.091,0,1,0,4.091,4.091A4.1,4.1,0,0,0,7.091,14.818Zm11.818,0A4.091,4.091,0,1,0,23,18.909,4.094,4.094,0,0,0,18.909,14.818Zm0,.455a.909.909,0,1,1-.909.909A.909.909,0,0,1,18.909,15.273ZM16.182,18a.909.909,0,1,1-.909.909A.909.909,0,0,1,16.182,18Zm2.727,0a.909.909,0,1,1-.909.909A.909.909,0,0,1,18.909,18Zm2.727,0a.909.909,0,1,1-.909.909A.909.909,0,0,1,21.636,18Zm-2.727,2.727a.909.909,0,1,1-.909.909A.909.909,0,0,1,18.909,20.727Z" transform="translate(5.999 6)" fill="#aa87e5"/>
</svg>
