<svg xmlns="http://www.w3.org/2000/svg" width="12" height="18" viewBox="0 0 12 18">
  <g id="Groupe_1934" data-name="Groupe 1934" transform="translate(0 0)">
    <path id="Tracé_3122" data-name="Tracé 3122" d="M99.341,836.087a6.278,6.278,0,0,0-4.589.511,5.9,5.9,0,0,0-2.929,3.576,1.025,1.025,0,0,0-.029.14,1.708,1.708,0,0,0,.372,1.307,1.854,1.854,0,0,0,1.228.674,1.577,1.577,0,0,0,.263.011,1.821,1.821,0,0,0,1.861-1.342,2.29,2.29,0,0,1,2.722-1.516,1.989,1.989,0,0,1,1.744,1.928c-.043.671-.564,1.15-1.418,1.894a7.029,7.029,0,0,0-2.543,3.278,1.028,1.028,0,0,0-.036.124A1.783,1.783,0,0,0,97.4,848.8a2,2,0,0,0,.368.04h.051a1.893,1.893,0,0,0,1.829-1.268,3.763,3.763,0,0,1,1.33-1.6,1,1,0,0,0,.092-.071c1.137-.98,2.7-2.32,2.7-4.607A5.469,5.469,0,0,0,99.341,836.087Z" transform="translate(-91.779 -835.868)" fill="#40cdde"/>
    <path id="Tracé_3123" data-name="Tracé 3123" d="M97.746,850.13h-.793a1.386,1.386,0,0,0-1.372,1.354v.756a1.367,1.367,0,0,0,1.327,1.308l.06,0H97.7a1.382,1.382,0,0,0,1.436-1.353v-.755A1.368,1.368,0,0,0,97.746,850.13Z" transform="translate(-91.401 -835.548)" fill="#40cdde"/>
  </g>
</svg>
