<svg xmlns="http://www.w3.org/2000/svg" width="20" height="18" viewBox="0 0 20 18">
  <path id="Tracé_3146" data-name="Tracé 3146" d="M147.771,7.858l-7.222-7.6a.826.826,0,0,0-.911-.2.846.846,0,0,0-.522.784V4.5h-.278A10.919,10.919,0,0,0,128,15.482V17.17a.831.831,0,0,0,.649.807.735.735,0,0,0,.183.022.861.861,0,0,0,.761-.481,9.1,9.1,0,0,1,8.2-5.134h1.32v3.659a.843.843,0,0,0,.522.783.824.824,0,0,0,.911-.2l7.222-7.6A.853.853,0,0,0,147.771,7.858Zm0,0" transform="translate(-128.004 0)" fill="#40cdde"/>
</svg>
