<svg id="main-38x38" xmlns="http://www.w3.org/2000/svg" width="38" height="38" viewBox="0 0 38 38">
  <rect id="Rectangle_8" data-name="Rectangle 8" width="38" height="38" rx="19" fill="#38c2ff" opacity="0.12"/>
  <path id="icons8-so_so" d="M16.015,3.242a.625.625,0,0,0-.544.352.64.64,0,0,0,.054.652A10.309,10.309,0,0,0,17.285,6.2a.62.62,0,0,0,.879-.1.639.639,0,0,0-.1-.89,9.008,9.008,0,0,1-1.517-1.693.623.623,0,0,0-.534-.275Zm-3.361.341a.625.625,0,0,0-.55.389.639.639,0,0,0,.114.67,49.893,49.893,0,0,0,3.87,3.935.619.619,0,0,0,.624.146.631.631,0,0,0,.423-.487.638.638,0,0,0-.222-.609A48.912,48.912,0,0,1,13.152,3.8.621.621,0,0,0,12.654,3.583Zm-4.4,1.146a.889.889,0,0,0-.6.318A.914.914,0,0,0,7.728,6.3l4.155,3.85-.815.93L6.025,6.512a.886.886,0,0,0-1.255.059l-.01.01a.913.913,0,0,0,.06,1.288l4.821,4.341-.612.826L4.5,9.159a.886.886,0,0,0-1.235.076l-.024.025A.914.914,0,0,0,3.3,10.552l4.3,3.825L7.093,15,4.6,12.8a.884.884,0,0,0-1.248.064l-.028.03a.914.914,0,0,0,.049,1.278c1.472,1.387,5.065,4.47,6.6,5.673a5.489,5.489,0,0,0,6.595.475,17.079,17.079,0,0,0,3.125-4.338C20.3,14.636,23,9.009,23,9.009c-.815-.723-2.038-1.031-3.465.414a15.923,15.923,0,0,0-2.059,2.659L8.9,4.932A.887.887,0,0,0,8.255,4.729ZM3.7,17.879a.627.627,0,0,0-.6.492.636.636,0,0,0,.331.708A27.432,27.432,0,0,1,7.92,22.09a.62.62,0,0,0,.881-.07.639.639,0,0,0-.069-.893A27.962,27.962,0,0,0,4,17.952a.619.619,0,0,0-.3-.073Z" transform="translate(6.001 6.758)" fill="#38c2fd"/>
</svg>
