<svg id="alimentation" xmlns="http://www.w3.org/2000/svg" width="38" height="38" viewBox="0 0 38 38">
  <rect id="Rectangle_8" data-name="Rectangle 8" width="38" height="38" rx="19" fill="#aa87e5" opacity="0.2"/>
  <g id="service-20x20" transform="translate(9 9)">
    <path id="icons8-service" d="M13,2a.9.9,0,0,0-.9.83l-.016.189a.834.834,0,0,0,.012.094,3.978,3.978,0,0,0-2.006,1.16c-.028-.017-.046-.044-.076-.059l-.17-.08a.9.9,0,0,0-.9,1.561l.156.109a.843.843,0,0,0,.1.041A3.957,3.957,0,0,0,9,7a3.957,3.957,0,0,0,.189,1.154.841.841,0,0,0-.1.041L8.938,8.3a.906.906,0,0,0,.9,1.563l.17-.08c.03-.014.048-.042.076-.059a3.979,3.979,0,0,0,2,1.16.838.838,0,0,0-.012.094l.018.189a.905.905,0,0,0,1.8,0l.016-.189a.834.834,0,0,0-.012-.094,3.978,3.978,0,0,0,2.006-1.16c.028.017.046.044.076.059l.17.082a.906.906,0,0,0,.9-1.562L16.906,8.2a.843.843,0,0,0-.1-.041A3.957,3.957,0,0,0,17,7a3.957,3.957,0,0,0-.189-1.154.841.841,0,0,0,.1-.041l.156-.107a.906.906,0,0,0-.9-1.562l-.17.08c-.03.014-.048.042-.076.059a3.979,3.979,0,0,0-2-1.16.838.838,0,0,0,.012-.094L13.9,2.83A.9.9,0,0,0,13,2Zm0,3.5A1.5,1.5,0,1,1,11.5,7,1.5,1.5,0,0,1,13,5.5ZM20.586,12a1.41,1.41,0,0,0-1,.414L15,17H11a.5.5,0,0,1,0-1h2.5a1.5,1.5,0,0,0,0-3H8.656A4,4,0,0,0,5.83,14.172L2,18l4,4,2-2h7.172a2,2,0,0,0,1.414-.586l5-5a1.414,1.414,0,0,0-1-2.414Z" transform="translate(-2 -2)" fill="#aa87e5"/>
  </g>
</svg>
