<svg xmlns="http://www.w3.org/2000/svg" width="60" height="60" viewBox="0 0 60 60">
  <g id="Icon-App-60-60" transform="translate(2116 7123.086)">
    <rect id="Rectangle_1944" data-name="Rectangle 1944" width="60" height="60" transform="translate(-2116 -7123.086)" fill="#40cdde"/>
    <g id="Group_1645" data-name="Group 1645" transform="translate(-2104.984 -7117.569)">
      <circle id="Ellipse_33" data-name="Ellipse 33" cx="3.18" cy="3.18" r="3.18" transform="translate(16.219 17.406)" fill="#fff"/>
      <circle id="Ellipse_34" data-name="Ellipse 34" cx="1.755" cy="1.755" r="1.755" transform="translate(13.092 11.391)" fill="#fff"/>
      <path id="Path_142" data-name="Path 142" d="M339.164-75.04l-9.9-3.29a11.642,11.642,0,0,1-3.676.746,11.651,11.651,0,0,1-12.093-11.19,11.649,11.649,0,0,1,11.2-12.087,11.65,11.65,0,0,1,12.093,11.19,11.584,11.584,0,0,1-1.677,6.48l10.345,10.238-4.236-7.618a28.258,28.258,0,0,0,1.4-9.137,17.475,17.475,0,0,0-18.139-16.784,17.473,17.473,0,0,0-16.792,18.13c.566,14.678,18.688,31.006,18.688,31.006S335.718-68.31,339.164-75.04Z" transform="translate(-307.664 106.505)" fill="#fff"/>
    </g>
  </g>
</svg>
