<svg xmlns="http://www.w3.org/2000/svg" width="180" height="180" viewBox="0 0 180 180">
  <g id="Icon-App-180-180" transform="translate(2116 7123)">
    <rect id="Rectangle_1944" data-name="Rectangle 1944" width="180" height="180" transform="translate(-2116 -7123)" fill="#40cdde"/>
    <g id="Group_1645" data-name="Group 1645" transform="translate(-2082.85 -7106.951)">
      <circle id="Ellipse_33" data-name="Ellipse 33" cx="9.568" cy="9.568" r="9.568" transform="translate(48.808 52.379)" fill="#fff"/>
      <circle id="Ellipse_34" data-name="Ellipse 34" cx="5.281" cy="5.281" r="5.281" transform="translate(39.397 34.279)" fill="#fff"/>
      <path id="Path_142" data-name="Path 142" d="M402.455-11.818l-29.8-9.9a35.032,35.032,0,0,1-11.062,2.244A35.059,35.059,0,0,1,325.2-53.146a35.055,35.055,0,0,1,33.689-36.372,35.059,35.059,0,0,1,36.39,33.672,34.861,34.861,0,0,1-5.045,19.5l31.13,30.809L408.616-28.463c2.878-9.478,4.54-18.849,4.206-27.5a52.587,52.587,0,0,0-54.586-50.507A52.582,52.582,0,0,0,307.7-51.908c1.7,44.171,56.236,93.3,56.236,93.3S392.084,8.432,402.455-11.818Z" transform="translate(-307.664 106.505)" fill="#fff"/>
    </g>
  </g>
</svg>
