<svg xmlns="http://www.w3.org/2000/svg" width="167" height="167" viewBox="0 0 167 167">
  <g id="Icon-App-167-167" transform="translate(2116 7123)">
    <rect id="Rectangle_1944" data-name="Rectangle 1944" width="167" height="167" transform="translate(-2116 -7123)" fill="#40cdde"/>
    <g id="Group_1645" data-name="Group 1645" transform="translate(-2085.245 -7108.11)">
      <circle id="Ellipse_33" data-name="Ellipse 33" cx="8.877" cy="8.877" r="8.877" transform="translate(45.283 48.596)" fill="#fff"/>
      <circle id="Ellipse_34" data-name="Ellipse 34" cx="4.899" cy="4.899" r="4.899" transform="translate(36.552 31.804)" fill="#fff"/>
      <path id="Path_142" data-name="Path 142" d="M395.609-18.657l-27.651-9.185A32.5,32.5,0,0,1,357.7-25.759,32.527,32.527,0,0,1,323.934-57,32.524,32.524,0,0,1,355.19-90.745,32.527,32.527,0,0,1,388.952-59.5a32.343,32.343,0,0,1-4.681,18.091L413.152-12.83,401.325-34.1c2.67-8.794,4.212-17.488,3.9-25.51a48.789,48.789,0,0,0-50.643-46.859A48.784,48.784,0,0,0,307.7-55.851c1.58,40.98,52.174,86.564,52.174,86.564S385.987.131,395.609-18.657Z" transform="translate(-307.664 106.505)" fill="#fff"/>
    </g>
  </g>
</svg>
